<?xml version="1.0" encoding="UTF-8"?>
<!DOCTYPE svg PUBLIC "-//W3C//DTD SVG 1.1//EN" "http://www.w3.org/Graphics/SVG/1.1/DTD/svg11.dtd">
<svg xmlns="http://www.w3.org/2000/svg" version="1.1" width="1024px" height="1024px" style="shape-rendering:geometricPrecision; text-rendering:geometricPrecision; image-rendering:optimizeQuality; fill-rule:evenodd; clip-rule:evenodd" xmlns:xlink="http://www.w3.org/1999/xlink">
<g><path style="opacity:0.994" fill="#a397b4" d="M 213.5,221.5 C 222.652,220.954 231.652,221.788 240.5,224C 253.5,232.333 266.5,240.667 279.5,249C 318.416,266.782 359.083,272.449 401.5,266C 431.44,261.026 458.106,249.026 481.5,230C 496.971,221.142 513.304,219.142 530.5,224C 543.998,232.916 557.664,241.583 571.5,250C 610.247,266.885 650.58,272.219 692.5,266C 710.442,263.13 727.442,257.464 743.5,249C 754.9,241.271 766.567,233.938 778.5,227C 796.618,220.343 814.284,221.343 831.5,230C 859.725,252.864 892.058,266.198 928.5,270C 936.605,273.106 942.439,278.606 946,286.5C 946.667,307.5 946.667,328.5 946,349.5C 943.081,358.051 937.247,363.551 928.5,366C 895.731,365.512 864.398,358.512 834.5,345C 823.185,340.009 812.185,334.509 801.5,328.5C 749.223,358.658 692.89,371.158 632.5,366C 603.923,363.606 576.256,357.272 549.5,347C 536.675,341.087 524.008,334.92 511.5,328.5C 459.223,358.658 402.89,371.158 342.5,366C 299.278,362.647 258.945,350.147 221.5,328.5C 191.351,346.162 159.017,357.996 124.5,364C 114.577,365.991 104.577,366.658 94.5,366C 85.7526,363.551 79.9193,358.051 77,349.5C 76.3333,328.5 76.3333,307.5 77,286.5C 80.1119,279.721 84.9452,274.555 91.5,271C 129.513,266.34 163.513,252.34 193.5,229C 200.021,225.775 206.688,223.275 213.5,221.5 Z"/></g>
<g><path style="opacity:0.994" fill="#a297b3" d="M 216.5,438.5 C 224.306,438.105 231.972,438.938 239.5,441C 252.5,449.333 265.5,457.667 278.5,466C 323.614,486.853 370.281,491.519 418.5,480C 441.426,473.538 462.092,462.872 480.5,448C 495.882,438.825 512.215,436.491 529.5,441C 542.5,449.333 555.5,457.667 568.5,466C 603.352,482.457 640.019,488.79 678.5,485C 712.77,482.584 743.103,470.584 769.5,449C 783.194,441.195 797.861,438.529 813.5,441C 820.273,442.146 826.606,444.48 832.5,448C 860.05,469.765 891.383,482.765 926.5,487C 936.165,489.333 942.665,495.166 946,504.5C 946.667,525.5 946.667,546.5 946,567.5C 941.2,577.986 933.034,583.652 921.5,584.5C 878.445,580.703 838.445,567.703 801.5,545.5C 752.629,574.78 699.629,587.613 642.5,584C 595.506,582.172 551.839,569.338 511.5,545.5C 467.419,571.815 419.585,584.815 368,584.5C 315.55,584.681 266.717,571.681 221.5,545.5C 183.524,569.103 142.19,581.936 97.5,584C 87.7034,582.205 80.8701,576.705 77,567.5C 76.3333,546.5 76.3333,525.5 77,504.5C 79.3513,497.481 83.8513,492.314 90.5,489C 128.531,484.335 162.531,470.335 192.5,447C 200.191,442.923 208.191,440.089 216.5,438.5 Z"/></g>
<g><path style="opacity:0.994" fill="#a397b4" d="M 213.5,656.5 C 222.652,655.954 231.652,656.788 240.5,659C 253.004,666.751 265.337,674.751 277.5,683C 317.212,702.007 358.879,708.007 402.5,701C 432.008,695.742 458.342,683.742 481.5,665C 497.001,656.202 513.335,654.202 530.5,659C 543.5,667.333 556.5,675.667 569.5,684C 597.732,697.647 627.566,704.147 659,703.5C 688.825,704.003 716.992,697.503 743.5,684C 754.9,676.271 766.567,668.938 778.5,662C 796.618,655.343 814.284,656.343 831.5,665C 859.627,687.275 891.627,700.608 927.5,705C 936.146,707.642 942.312,713.142 946,721.5C 946.667,742.5 946.667,763.5 946,784.5C 943.081,793.051 937.247,798.551 928.5,801C 897.312,800.429 867.312,794.096 838.5,782C 825.852,776.342 813.518,770.176 801.5,763.5C 749.6,793.783 693.6,806.283 633.5,801C 589.875,797.845 549.209,785.345 511.5,763.5C 459.278,793.914 402.944,806.414 342.5,801C 299.248,797.636 258.915,785.136 221.5,763.5C 191.483,781.502 159.15,793.335 124.5,799C 114.577,800.991 104.577,801.658 94.5,801C 85.7526,798.551 79.9193,793.051 77,784.5C 76.3333,763.833 76.3333,743.167 77,722.5C 79.6887,715.143 84.522,709.643 91.5,706C 129.684,701.728 163.684,687.728 193.5,664C 200.021,660.775 206.688,658.275 213.5,656.5 Z"/></g>
</svg>
